<svg version="1.1" xmlns="http://www.w3.org/2000/svg" width="256" height="256">
    <path d="M0 0 C22.03852652 18.81159856 36.46579334 41.06373377 44.3515625 68.91015625 C44.69316406 70.08835937 45.03476563 71.2665625 45.38671875 72.48046875 C52.92056498 104.36791093 46.53869956 140.38566089 29.7109375 168.21484375 C11.42243893 197.30470432 -15.82417005 216.61472176 -48.6484375 225.91015625 C-49.82664063 226.25175781 -51.00484375 226.59335938 -52.21875 226.9453125 C-78.47842447 233.1495213 -108.14583514 229.67794972 -132.6484375 218.91015625 C-133.30263672 218.62688477 -133.95683594 218.34361328 -134.63085938 218.05175781 C-164.72593234 204.76588414 -188.43262339 179.18859339 -200.51953125 148.71386719 C-202.47890077 143.51521742 -204.1350825 138.25415274 -205.6484375 132.91015625 C-205.99003906 131.73195312 -206.33164063 130.55375 -206.68359375 129.33984375 C-214.21743998 97.45240157 -207.83557456 61.43465161 -191.0078125 33.60546875 C-172.71931393 4.51560818 -145.47270495 -14.79440926 -112.6484375 -24.08984375 C-111.47023438 -24.43144531 -110.29203125 -24.77304687 -109.078125 -25.125 C-71.91216204 -33.90596927 -29.43835184 -24.14652242 0 0 Z " fill="#0A0A0A" transform="translate(208.6484375,27.08984375)"/>
    <path d="M0 0 C1.08023438 -0.0100708 2.16046875 -0.0201416 3.2734375 -0.03051758 C17.27903045 0.11981651 32.30489712 4.03010105 42.875 13.75 C52.96779703 25.09165322 53.72421776 39.21590665 53.05517578 53.62548828 C51.96582278 66.24839357 47.16482837 77.51135529 38 86.3125 C30.69446139 92.24223096 23.31408673 93.00824533 14.05859375 92.7890625 C7.26944493 92.05377562 3.28729429 88.31909377 -1.1875 83.4375 C-1.85136719 83.91960937 -2.51523438 84.40171875 -3.19921875 84.8984375 C-4.08222656 85.53007812 -4.96523437 86.16171875 -5.875 86.8125 C-6.74511719 87.43898438 -7.61523438 88.06546875 -8.51171875 88.7109375 C-15.16381541 93.00323929 -21.41409056 93.23050525 -29.1875 92.4375 C-34.34253193 89.99564277 -37.68699641 86.38453223 -40.2734375 81.3046875 C-44.01788417 69.5592864 -41.28405413 54.55788836 -35.8671875 43.8203125 C-31.69419868 37.04775688 -25.91446877 30.87517467 -18.1875 28.4375 C-11.73140734 27.76842983 -5.65316799 27.57153972 -0.1875 31.4375 C2.6875 34.125 2.6875 34.125 4.8125 36.4375 C5.286875 35.468125 5.76125 34.49875 6.25 33.5 C7.8125 30.4375 7.8125 30.4375 8.8125 29.4375 C10.64365883 29.33898829 12.47869933 29.30777371 14.3125 29.3125 C15.3128125 29.30992188 16.313125 29.30734375 17.34375 29.3046875 C19.8125 29.4375 19.8125 29.4375 20.8125 30.4375 C21.36888752 38.73363535 19.32059737 46.55008661 17.58984375 54.61914062 C16.18381995 61.484554 14.88237704 68.41587345 15.8125 75.4375 C16.4725 76.0975 17.1325 76.7575 17.8125 77.4375 C21.95760602 77.35929045 24.2239621 76.87890343 27.5625 74.375 C33.7132091 66.34490757 34.00032327 56.78506237 34.0625 47 C34.083125 46.19240234 34.10375 45.38480469 34.125 44.55273438 C34.17673861 36.52678214 32.12846228 29.96988227 26.609375 23.97265625 C23.38134567 21.21479641 19.79272574 19.80548777 15.8125 18.4375 C14.636875 18.025 13.46125 17.6125 12.25 17.1875 C-1.4715377 14.1986502 -17.39679597 16.37826797 -29.6875 23.125 C-40.66694118 30.51217435 -47.02705611 41.52937235 -50.0625 54.25 C-51.21089815 60.90658331 -51.52654679 67.50054551 -51.625 74.25 C-51.64739746 75.20430908 -51.66979492 76.15861816 -51.69287109 77.1418457 C-51.66349694 86.055356 -49.21083679 94.34882378 -43.0078125 100.97265625 C-39.47000148 103.81960718 -35.49720262 105.15362152 -31.1875 106.4375 C-30.45015625 106.66308594 -29.7128125 106.88867188 -28.953125 107.12109375 C-17.00895365 110.10713659 -3.99571484 109.17007778 7.796875 106.09375 C10.8125 105.4375 10.8125 105.4375 16.8125 105.4375 C16.8125 109.7275 16.8125 114.0175 16.8125 118.4375 C6.49198734 124.39164192 -4.47958306 124.78476222 -16.1875 124.75 C-17.81558594 124.77416992 -17.81558594 124.77416992 -19.4765625 124.79882812 C-33.34881512 124.80710513 -44.95515586 120.87395368 -56.5 113.25 C-63.0892328 106.35429126 -67.04626144 98.67776794 -69.1875 89.4375 C-69.44442627 88.525448 -69.44442627 88.525448 -69.70654297 87.5949707 C-74.01890224 68.25064639 -68.31561913 45.23701121 -57.91015625 28.84375 C-47.51566101 14.32445506 -33.44008769 4.03574077 -15.67724609 0.76269531 C-10.46857514 0.08237077 -5.24659214 0.03163737 0 0 Z " fill="#CFCFCF" transform="translate(134.1875,60.5625)"/>
    <path d="M0 0 C3.41254763 2.42815889 5.67680763 4.51521145 8 8 C7.73868536 12.39483709 6.83049661 16.68037299 6 21 C5.773125 22.299375 5.54625 23.59875 5.3125 24.9375 C3.02546289 30.27391993 -1.66739456 33.81279855 -7 36 C-10.625 35.8125 -10.625 35.8125 -14 35 C-17.72204362 29.41693457 -16.71109977 20.69045207 -15.46484375 14.22265625 C-13.02015637 6.40767201 -9.25508617 -1.27030594 0 0 Z " fill="#0D0D0D" transform="translate(127,103)"/>
</svg>